<svg width="32" height="32" viewBox="0 0 32 32" fill="none" xmlns="http://www.w3.org/2000/svg">
<path d="M21.5867 2.66667H10.4134C5.56002 2.66667 2.66669 5.56 2.66669 10.4133V21.5733C2.66669 26.44 5.56002 29.3333 10.4134 29.3333H21.5734C26.4267 29.3333 29.32 26.44 29.32 21.5867V10.4133C29.3334 5.56 26.44 2.66667 21.5867 2.66667ZM24 17H17V24C17 24.5467 16.5467 25 16 25C15.4534 25 15 24.5467 15 24V17H8.00002C7.45335 17 7.00002 16.5467 7.00002 16C7.00002 15.4533 7.45335 15 8.00002 15H15V8C15 7.45333 15.4534 7 16 7C16.5467 7 17 7.45333 17 8V15H24C24.5467 15 25 15.4533 25 16C25 16.5467 24.5467 17 24 17Z" fill="#8646F4"/>
</svg>
