<svg width="72" height="72" viewBox="0 0 72 72" fill="none" xmlns="http://www.w3.org/2000/svg">
<rect width="72" height="72" rx="36" fill="#E6E9EC"/>
<mask id="mask0_291_1083" style="mask-type:alpha" maskUnits="userSpaceOnUse" x="0" y="0" width="72" height="72">
<rect width="72" height="72" rx="36" fill="#CCD2D8"/>
</mask>
<g mask="url(#mask0_291_1083)">
<path fill-rule="evenodd" clip-rule="evenodd" d="M42.5626 42.4357C45.8619 40.318 48 36.6045 48 32.3999C48 25.7707 42.6237 20.3999 35.9949 20.3999C28.4496 20.3999 22.5234 27.3973 24.3257 35.2541C25.3337 39.5815 28.8467 43.0802 33.1845 44.093C34.1315 44.3078 35.0785 44.3999 35.9949 44.3999C38.4082 44.3999 40.6687 43.694 42.5626 42.4357ZM25.6 49.1999C16.7634 49.1999 9.59998 56.3633 9.59998 65.1999V71.9999H62.4V65.1999C62.4 56.3633 55.2365 49.1999 46.4 49.1999H25.6Z" fill="#CCD2D8"/>
</g>
</svg>
