<svg width="25" height="24" viewBox="0 0 25 24" fill="none" xmlns="http://www.w3.org/2000/svg">
<path d="M7.46572 18.3501L7.46544 18.3503C6.26465 19.0425 4.76001 18.172 4.76001 16.7901V7.22006C4.76001 5.83062 6.26246 4.96635 7.46544 5.65983L7.46572 5.65998L11.6145 8.04931L11.6157 8.04998L15.7645 10.4493L15.7654 10.4498C16.9649 11.1413 16.9649 12.8689 15.7654 13.5603L15.7645 13.5608L11.6157 15.9601L11.6145 15.9608L7.46572 18.3501Z" fill="#A1A1AA" stroke="#A1A1AA" stroke-width="1.5"/>
<mask id="path-2-inside-1_1464_2403" fill="white">
<path d="M20.49 18.9301C20.08 18.9301 19.74 18.5901 19.74 18.1801V5.82007C19.74 5.41007 20.08 5.07007 20.49 5.07007C20.9 5.07007 21.24 5.41007 21.24 5.82007V18.1801C21.24 18.5901 20.91 18.9301 20.49 18.9301Z"/>
</mask>
<path d="M20.49 18.9301C20.08 18.9301 19.74 18.5901 19.74 18.1801V5.82007C19.74 5.41007 20.08 5.07007 20.49 5.07007C20.9 5.07007 21.24 5.41007 21.24 5.82007V18.1801C21.24 18.5901 20.91 18.9301 20.49 18.9301Z" fill="#A1A1AA"/>
<path d="M20.49 17.4301C20.9084 17.4301 21.24 17.7616 21.24 18.1801H18.24C18.24 19.4185 19.2516 20.4301 20.49 20.4301V17.4301ZM21.24 18.1801V5.82007H18.24V18.1801H21.24ZM21.24 5.82007C21.24 6.2385 20.9084 6.57007 20.49 6.57007V3.57007C19.2516 3.57007 18.24 4.58164 18.24 5.82007H21.24ZM20.49 6.57007C20.0716 6.57007 19.74 6.2385 19.74 5.82007H22.74C22.74 4.58164 21.7284 3.57007 20.49 3.57007V6.57007ZM19.74 5.82007V18.1801H22.74V5.82007H19.74ZM19.74 18.1801C19.74 17.7747 20.0686 17.4301 20.49 17.4301V20.4301C21.7514 20.4301 22.74 19.4054 22.74 18.1801H19.74Z" fill="#A1A1AA" mask="url(#path-2-inside-1_1464_2403)"/>
</svg>
