<svg width="24" height="24" viewBox="0 0 24 24" fill="none" xmlns="http://www.w3.org/2000/svg">
<path fill-rule="evenodd" clip-rule="evenodd" d="M7.5 1.5C5.7104 1.50199 3.99466 2.21378 2.72922 3.47922C1.46378 4.74466 0.751985 6.4604 0.75 8.25H2.25C2.25 6.85761 2.80312 5.52226 3.78769 4.53769C4.77226 3.55312 6.10761 3 7.5 3C8.89239 3 10.2277 3.55312 11.2123 4.53769C12.1969 5.52226 12.75 6.85761 12.75 8.25C12.7527 9.17952 12.5116 10.0935 12.0509 10.9008C11.5902 11.7081 10.9259 12.3806 10.1242 12.8511L9.75 13.0672V15.3721C9.75361 15.6729 9.69551 15.9713 9.5793 16.2488C9.46309 16.5264 9.29123 16.7771 9.07433 16.9856C8.6417 17.4511 8.07789 17.7742 7.45755 17.9122C6.83721 18.0501 6.1896 17.9964 5.60047 17.7581C5.0599 17.5244 4.59798 17.1401 4.26986 16.651C3.94174 16.162 3.76127 15.5888 3.75 15H2.25C2.26349 15.8805 2.53017 16.7385 3.01818 17.4716C3.50619 18.2046 4.1949 18.7816 5.00205 19.1338C5.54937 19.3736 6.14035 19.4978 6.73793 19.4985C7.99714 19.472 9.19868 18.9655 10.0968 18.0825C10.4641 17.7336 10.756 17.313 10.9543 16.8468C11.1527 16.3806 11.2533 15.8787 11.25 15.3721V13.9153C12.1754 13.2885 12.9328 12.4442 13.4559 11.4564C13.9789 10.4687 14.2516 9.36768 14.25 8.25C14.248 6.4604 13.5362 4.74466 12.2708 3.47922C11.0053 2.21378 9.2896 1.50199 7.5 1.5ZM13.5 22.5V21C15.4884 20.9977 17.3948 20.2068 18.8008 18.8008C20.2068 17.3948 20.9977 15.4884 21 13.5H22.5C22.4973 15.8861 21.5483 18.1738 19.861 19.861C18.1738 21.5483 15.8861 22.4973 13.5 22.5ZM13.5 19.5V18C14.6931 17.9987 15.8369 17.5242 16.6805 16.6805C17.5242 15.8369 17.9987 14.6931 18 13.5H19.5C19.4982 15.0907 18.8654 16.6158 17.7406 17.7406C16.6158 18.8654 15.0907 19.4982 13.5 19.5ZM13.5 15V16.5C14.2954 16.4992 15.058 16.1828 15.6204 15.6204C16.1828 15.058 16.4992 14.2954 16.5 13.5H15C14.9995 13.8977 14.8414 14.279 14.5602 14.5602C14.279 14.8414 13.8977 14.9995 13.5 15ZM7.97126 6.04814C7.63748 5.97607 7.2917 5.98076 6.96 6.06185C6.52621 6.16857 6.13399 6.40193 5.83323 6.73224C5.53248 7.06255 5.33679 7.47487 5.27109 7.91674C5.20538 8.3586 5.27261 8.81001 5.46424 9.21355C5.65586 9.61708 5.96321 9.95448 6.34717 10.1828C6.92106 10.5129 7.39861 10.9874 7.73241 11.5592C8.06621 12.131 8.24464 12.7801 8.25 13.4422V15H6.75V13.4422C6.74339 13.0397 6.63165 12.646 6.42589 12.3001C6.22013 11.9541 5.92748 11.668 5.577 11.4701C4.89295 11.0582 4.35717 10.44 4.0467 9.70441C3.73624 8.96878 3.6671 8.15364 3.84922 7.37623C4.00617 6.7 4.34959 6.08132 4.84046 5.59044C5.33134 5.09956 5.95002 4.75615 6.62625 4.5992C7.18087 4.46922 7.75769 4.46623 8.31363 4.59046C8.86956 4.7147 9.39024 4.96294 9.83677 5.31665C10.2785 5.66714 10.6352 6.11313 10.88 6.62116C11.1247 7.12919 11.2512 7.68606 11.25 8.24998H9.75C9.7497 7.90851 9.67185 7.57157 9.52231 7.26459C9.37277 6.9576 9.15546 6.6886 8.88677 6.47787C8.61808 6.26715 8.30503 6.1202 7.97126 6.04814Z" fill="#8646F4"/>
</svg>
