<svg width="16" height="16" viewBox="0 0 16 16" fill="none" xmlns="http://www.w3.org/2000/svg">
<g clip-path="url(#clip0_129_338)">
<path d="M8 16C12.4183 16 16 12.4183 16 8C16 3.58172 12.4183 0 8 0C3.58172 0 0 3.58172 0 8C0 12.4183 3.58172 16 8 16Z" fill="#F0F0F0"/>
<path d="M10.7827 7.99976C10.7827 8.69541 9.5369 10.4345 8.00012 10.4345C6.46334 10.4345 5.21753 8.69541 5.21753 7.99976C5.21753 6.46294 6.46334 5.21716 8.00012 5.21716C9.5369 5.21716 10.7827 6.46294 10.7827 7.99976Z" fill="#D80027"/>
<path d="M10.7827 7.99969C10.7827 9.53651 9.5369 10.7823 8.00012 10.7823C6.46334 10.7823 5.21753 9.53651 5.21753 7.99969" fill="#0052B4"/>
<path d="M11.689 9.72176L10.9512 10.4596L11.4431 10.9515L12.1809 10.2137L11.689 9.72176Z" fill="#1F2937"/>
<path d="M10.459 10.9513L9.72113 11.6891L10.213 12.181L10.9509 11.4431L10.459 10.9513Z" fill="#1F2937"/>
<path d="M13.1647 11.1965L12.4269 11.9343L12.9188 12.4262L13.6566 11.6884L13.1647 11.1965Z" fill="#1F2937"/>
<path d="M11.9353 12.4273L11.1975 13.1651L11.6894 13.657L12.4272 12.9192L11.9353 12.4273Z" fill="#1F2937"/>
<path d="M12.4271 10.4597L11.6892 11.1976L12.1811 11.6895L12.919 10.9516L12.4271 10.4597Z" fill="#1F2937"/>
<path d="M11.1973 11.6892L10.4595 12.4271L10.9514 12.919L11.6892 12.1811L11.1973 11.6892Z" fill="#1F2937"/>
<path d="M10.4596 3.5721L12.4271 5.53967L12.919 5.04777L10.9515 3.0802L10.4596 3.5721Z" fill="#1F2937"/>
<path d="M9.72185 4.31075L10.4597 5.04858L10.9516 4.55671L10.2137 3.81887L9.72185 4.31075Z" fill="#1F2937"/>
<path d="M10.9516 5.54L11.6894 6.27783L12.1813 5.78596L11.4435 5.04812L10.9516 5.54Z" fill="#1F2937"/>
<path d="M11.1967 2.83486L11.9346 3.57269L12.4265 3.08079L11.6886 2.34296L11.1967 2.83486Z" fill="#1F2937"/>
<path d="M12.4273 4.06514L13.1651 4.80298L13.657 4.31108L12.9192 3.57324L12.4273 4.06514Z" fill="#1F2937"/>
<path d="M4.80229 13.1653L2.83472 11.1978L2.34282 11.6897L4.31039 13.6572L4.80229 13.1653Z" fill="#1F2937"/>
<path d="M5.54045 12.4266L4.80261 11.6888L4.31074 12.1807L5.04857 12.9185L5.54045 12.4266Z" fill="#1F2937"/>
<path d="M4.31059 11.1972L3.57275 10.4594L3.08086 10.9513L3.81869 11.6891L4.31059 11.1972Z" fill="#1F2937"/>
<path d="M6.27833 11.6891L4.31076 9.72156L3.81886 10.2135L5.78643 12.181L6.27833 11.6891Z" fill="#1F2937"/>
<path d="M2.8351 4.80314L4.80267 2.83557L4.31077 2.34367L2.3432 4.31124L2.8351 4.80314Z" fill="#1F2937"/>
<path d="M3.5724 5.5399L5.53998 3.57233L5.04808 3.08043L3.0805 5.048L3.5724 5.5399Z" fill="#1F2937"/>
<path d="M4.3109 6.278L6.27847 4.31042L5.7866 3.81855L3.81903 5.78612L4.3109 6.278Z" fill="#1F2937"/>
</g>
<defs>
<clipPath id="clip0_129_338">
<rect width="16" height="16" fill="white"/>
</clipPath>
</defs>
</svg>
