<svg width="161" height="55" viewBox="0 0 161 55" fill="none" xmlns="http://www.w3.org/2000/svg">
<path d="M155.781 19.1197C154.479 19.8658 152.953 18.9092 152.5 17.4781C153.032 17.3026 153.438 17.1272 153.719 16.9518C154.014 16.7909 154.221 16.5643 154.339 16.2719C154.472 15.9795 154.539 15.5848 154.539 15.0877L154.494 13.2456C154.494 12.3977 154.753 11.6886 155.27 11.1184C155.802 10.5482 156.629 10.1243 157.752 9.84649V10.1754C156.629 9.86842 155.802 9.42982 155.27 8.85965C154.753 8.28947 154.494 7.58772 154.494 6.75439L154.539 4.91228C154.539 4.44445 154.48 4.07895 154.361 3.81579C154.243 3.53801 154.036 3.31871 153.741 3.15789C153.445 2.99708 153.032 2.82895 152.5 2.65351L152.704 1.9762C153.041 0.854117 154.199 0.117793 155.27 0.592106C155.831 0.840643 156.289 1.14035 156.644 1.49123C157.013 1.82749 157.287 2.23684 157.464 2.7193C157.656 3.20175 157.752 3.75 157.752 4.36404L157.73 6.44737C157.73 7.17836 157.885 7.7193 158.195 8.07018C158.52 8.42105 158.993 8.6038 159.614 8.61842C160.103 8.61842 160.5 9.01529 160.5 9.50486V10.4508C160.5 10.9649 160.083 11.3816 159.569 11.3816C158.949 11.3962 158.483 11.5789 158.173 11.9298C157.878 12.2661 157.73 12.807 157.73 13.5526L157.752 15.636C157.752 16.8348 157.39 17.7778 156.666 18.4649C156.418 18.7055 156.123 18.9237 155.781 19.1197Z" fill="#7F56D9"/>
<path d="M130.219 19.1197C131.521 19.8658 133.047 18.9092 133.5 17.4781C132.968 17.3026 132.562 17.1272 132.281 16.9518C131.986 16.7909 131.779 16.5643 131.661 16.2719C131.528 15.9795 131.461 15.5848 131.461 15.0877L131.506 13.2456C131.506 12.3977 131.247 11.6886 130.73 11.1184C130.198 10.5482 129.371 10.1243 128.248 9.84649V10.1754C129.371 9.86842 130.198 9.42982 130.73 8.85965C131.247 8.28947 131.506 7.58772 131.506 6.75439L131.461 4.91228C131.461 4.44445 131.52 4.07895 131.638 3.81579C131.757 3.53801 131.964 3.31871 132.259 3.15789C132.554 2.99708 132.968 2.82895 133.5 2.65351L133.296 1.9762C132.959 0.854117 131.801 0.117793 130.73 0.592106C130.168 0.840643 129.71 1.14035 129.356 1.49123C128.987 1.82749 128.713 2.23684 128.536 2.7193C128.344 3.20175 128.248 3.75 128.248 4.36404L128.27 6.44737C128.27 7.17836 128.115 7.7193 127.805 8.07018C127.48 8.42105 127.007 8.6038 126.386 8.61842C125.897 8.61842 125.5 9.01529 125.5 9.50486V10.4508C125.5 10.9649 125.917 11.3816 126.431 11.3816C127.051 11.3962 127.517 11.5789 127.827 11.9298C128.122 12.2661 128.27 12.807 128.27 13.5526L128.248 15.636C128.248 16.8348 128.61 17.7778 129.334 18.4649C129.582 18.7055 129.877 18.9237 130.219 19.1197Z" fill="#7F56D9"/>
<rect x="135.5" y="5" width="3" height="10" rx="1.5" fill="#1F2A37"/>
<rect x="147.5" y="5" width="3" height="10" rx="1.5" fill="#1F2A37"/>
<rect x="141.5" y="1" width="3" height="18" rx="1.5" fill="#1F2A37"/>
<path d="M8.39611 54.6134L8.3961 31.2197H0.5C0.5 28.3369 2.83694 26 5.71971 26H22.3304C22.3304 28.8828 19.9934 31.2197 17.1107 31.2197H14.2021L14.2021 54.6134H8.39611Z" fill="#1F2A37"/>
<path d="M30.6298 55C28.4106 55 26.4753 54.5489 24.8238 53.6467C23.1724 52.7446 21.8822 51.5073 20.9532 49.935C20.0243 48.3626 19.5598 46.5583 19.5598 44.5219C19.5598 42.9496 19.8178 41.5061 20.3339 40.1915C20.85 38.8769 21.5725 37.7428 22.5015 36.789C23.4304 35.8095 24.5271 35.062 25.7915 34.5465C27.0817 34.0052 28.4751 33.7345 29.9718 33.7345C31.3652 33.7345 32.6554 33.9923 33.8424 34.5078C35.0294 34.9976 36.0487 35.7064 36.9002 36.6344C37.7776 37.5366 38.4485 38.6063 38.913 39.8435C39.3774 41.0808 39.5839 42.434 39.5323 43.9033L39.4936 45.6045H23.0434L22.1531 42.2407H34.9649L34.3456 42.9367V42.0861C34.294 41.3901 34.0618 40.7586 33.6489 40.1915C33.2618 39.6244 32.7587 39.1862 32.1394 38.8769C31.5201 38.5676 30.8233 38.4129 30.0492 38.4129C28.9138 38.4129 27.9462 38.632 27.1462 39.0702C26.3721 39.5084 25.7786 40.1528 25.3657 41.0035C24.9529 41.8541 24.7464 42.8851 24.7464 44.0966C24.7464 45.3339 25.0045 46.4036 25.5206 47.3058C26.0624 48.2079 26.8108 48.9168 27.7655 49.4323C28.7461 49.9221 29.8944 50.1669 31.2104 50.1669C32.1135 50.1669 32.9393 50.0252 33.6876 49.7416C34.4359 49.4581 35.2359 48.9683 36.0874 48.2724L38.7194 51.9455C37.9711 52.6157 37.1454 53.1828 36.2422 53.6467C35.3391 54.0849 34.4101 54.42 33.4554 54.652C32.5006 54.884 31.5588 55 30.6298 55Z" fill="#1F2A37"/>
<path d="M52.6126 55C50.6515 55 48.8968 54.536 47.3486 53.6081C45.8003 52.6801 44.5746 51.4171 43.6715 49.819C42.7941 48.2208 42.3554 46.4036 42.3554 44.3673C42.3554 42.3567 42.7941 40.5524 43.6715 38.9542C44.5746 37.3303 45.8003 36.0544 47.3486 35.1265C48.8968 34.1985 50.6515 33.7345 52.6126 33.7345C54.4447 33.7345 56.122 34.0696 57.6445 34.7398C59.1669 35.41 60.3539 36.338 61.2054 37.5237L58.1863 41.1581C57.8251 40.6684 57.3735 40.2302 56.8316 39.8435C56.2897 39.4311 55.6962 39.1089 55.0511 38.8769C54.4318 38.6449 53.7867 38.5289 53.1158 38.5289C52.0578 38.5289 51.116 38.7867 50.2902 39.3022C49.4903 39.792 48.8581 40.475 48.3936 41.3514C47.9292 42.2278 47.6969 43.2331 47.6969 44.3673C47.6969 45.4757 47.9292 46.468 48.3936 47.3444C48.8839 48.1951 49.5419 48.891 50.3677 49.4323C51.1934 49.9478 52.1224 50.2056 53.1545 50.2056C53.8254 50.2056 54.4576 50.1154 55.0511 49.935C55.6446 49.7287 56.1994 49.4323 56.7155 49.0457C57.2574 48.659 57.7477 48.1951 58.1863 47.6538L61.1667 51.2882C60.2894 52.3966 59.0766 53.2988 57.5283 53.9947C55.9801 54.6649 54.3415 55 52.6126 55Z" fill="#1F2A37"/>
<path d="M64.6887 54.6134V28.7111C64.6887 27.2147 65.9018 26.0017 67.3982 26.0017C68.8945 26.0017 70.1076 27.2147 70.1076 28.7111V38.3356L69.0238 38.7996C69.3077 37.8716 69.8109 37.0339 70.5334 36.2864C71.2817 35.5131 72.1719 34.8945 73.2041 34.4305C74.2363 33.9665 75.3201 33.7345 76.4554 33.7345C78.0037 33.7345 79.2939 34.0439 80.3261 34.6625C81.3841 35.2811 82.1711 36.222 82.6872 37.485C83.2291 38.7223 83.5 40.256 83.5 42.0861V54.6134H78.0037V42.5114C78.0037 41.5834 77.8747 40.8101 77.6166 40.1915C77.3586 39.5729 76.9586 39.1218 76.4167 38.8383C75.9007 38.5289 75.2555 38.4001 74.4814 38.4516C73.8621 38.4516 73.2815 38.5547 72.7396 38.7609C72.2236 38.9414 71.772 39.212 71.3849 39.5729C71.0237 39.9337 70.7269 40.3462 70.4947 40.8101C70.2882 41.2741 70.185 41.7768 70.185 42.3181V54.6134H67.4756C66.2886 54.6134 65.3596 54.6134 64.6887 54.6134Z" fill="#1F2A37"/>
<path d="M91.2934 54.6133L91.2934 33.9714C91.2934 30.9664 93.7294 28.5304 96.7344 28.5304L96.7345 54.6133H91.2934ZM87.5 38.6224C87.5 35.9103 89.6986 33.7117 92.4107 33.7117H100.873C100.873 36.4238 98.6741 38.6224 95.962 38.6224H87.5Z" fill="#7F56D9"/>
<path d="M111.819 55C110.133 55 108.613 54.536 107.259 53.608C105.905 52.68 104.832 51.4169 104.04 49.8187C103.249 48.2204 102.853 46.3902 102.853 44.328C102.853 42.2658 103.249 40.4484 104.04 38.876C104.858 37.2778 105.956 36.0276 107.336 35.1253C108.715 34.1973 110.286 33.7333 112.049 33.7333C113.045 33.7333 113.952 33.888 114.769 34.1973C115.612 34.4809 116.34 34.8804 116.953 35.396C117.592 35.9116 118.128 36.5044 118.563 37.1747C118.997 37.8449 119.304 38.5667 119.482 39.34L118.333 39.1467V36.86C118.333 35.3681 119.542 34.1587 121.034 34.1587C122.526 34.1587 123.736 35.3681 123.736 36.86V51.8736C123.736 53.3867 122.509 54.6133 120.996 54.6133C119.483 54.6133 118.256 53.3867 118.256 51.8736V49.7027L119.482 49.5867C119.278 50.3084 118.946 50.9916 118.486 51.636C118.026 52.2804 117.452 52.8604 116.762 53.376C116.098 53.8658 115.344 54.2653 114.501 54.5747C113.658 54.8582 112.764 55 111.819 55ZM112.509 50.244C113.53 50.244 114.424 49.9991 115.191 49.5093C115.957 49.0196 116.545 48.3364 116.953 47.46C117.388 46.5578 117.605 45.5138 117.605 44.328C117.605 43.168 117.388 42.1498 116.953 41.2733C116.545 40.3969 115.957 39.7138 115.191 39.224C114.424 38.7084 113.53 38.4507 112.509 38.4507C111.512 38.4507 110.631 38.7084 109.865 39.224C109.124 39.7138 108.536 40.3969 108.102 41.2733C107.668 42.1498 107.451 43.168 107.451 44.328C107.451 45.5138 107.668 46.5578 108.102 47.46C108.536 48.3364 109.124 49.0196 109.865 49.5093C110.631 49.9991 111.512 50.244 112.509 50.244Z" fill="#7F56D9"/>
<path d="M131.949 54.6133C130.447 54.6133 129.229 53.3953 129.229 51.8928V28.7205C129.229 27.218 130.447 26 131.949 26C133.452 26 134.67 27.218 134.67 28.7205V51.8928C134.67 53.3953 133.452 54.6133 131.949 54.6133Z" fill="#7F56D9"/>
<path d="M145.365 48.4653L143.755 43.9413L152.616 34.8922C153.076 34.4231 153.705 34.1587 154.361 34.1587C156.57 34.1587 157.644 36.8581 156.039 38.3755L145.365 48.4653ZM142.912 54.6133C141.41 54.6133 140.192 53.3953 140.192 51.8928V28.7205C140.192 27.218 141.41 26 142.912 26C144.415 26 145.633 27.218 145.633 28.7205V51.8928C145.633 53.3953 144.415 54.6133 142.912 54.6133ZM155.14 54.6133C154.363 54.6133 153.629 54.257 153.148 53.6466L146.629 45.372L150.461 42.2787L157.11 50.4797C158.454 52.1377 157.275 54.6133 155.14 54.6133Z" fill="#7F56D9"/>
</svg>

