<svg width="207" height="68" viewBox="0 0 207 68" fill="none" xmlns="http://www.w3.org/2000/svg">
<path d="M10.1793 67.5067L10.1793 37.6596H0C0 33.9816 2.98161 31 6.65962 31H28.1428C28.1428 34.678 25.1612 37.6596 21.4832 37.6596H17.6641L17.6641 67.5067H10.1793Z" fill="#1F2A37"/>
<path d="M38.842 68C35.9812 68 33.4863 67.4245 31.3572 66.2734C29.2282 65.1224 27.565 63.5438 26.3674 61.5377C25.1698 59.5316 24.571 57.2295 24.571 54.6314C24.571 52.6253 24.9037 50.7836 25.569 49.1064C26.2343 47.4292 27.1658 45.9821 28.3633 44.7653C29.5609 43.5156 30.9747 42.5619 32.6047 41.9042C34.268 41.2135 36.0643 40.8682 37.9938 40.8682C39.7901 40.8682 41.4534 41.1971 42.9836 41.8548C44.5138 42.4797 45.8278 43.3841 46.9256 44.568C48.0566 45.719 48.9215 47.0839 49.5203 48.6624C50.1191 50.241 50.3852 51.9676 50.3187 53.8421L50.2688 56.0127H29.0619L27.9142 51.7209H44.4307L43.6323 52.6089V51.5236C43.5658 50.6357 43.2664 49.8299 42.7341 49.1064C42.2351 48.3829 41.5865 47.8238 40.7881 47.4292C39.9897 47.0345 39.0915 46.8372 38.0936 46.8372C36.6299 46.8372 35.3824 47.1167 34.3512 47.6758C33.3532 48.2349 32.5881 49.0571 32.0558 50.1424C31.5236 51.2276 31.2574 52.5431 31.2574 54.0888C31.2574 55.6674 31.5901 57.0322 32.2554 58.1832C32.954 59.3343 33.9187 60.2387 35.1495 60.8964C36.4136 61.5213 37.894 61.8337 39.5905 61.8337C40.7548 61.8337 41.8193 61.6528 42.784 61.291C43.7487 60.9293 44.78 60.3044 45.8777 59.4165L49.2708 64.1029C48.3061 64.958 47.2416 65.6815 46.0773 66.2734C44.913 66.8325 43.7155 67.26 42.4846 67.556C41.2538 67.852 40.0396 68 38.842 68Z" fill="#1F2A37"/>
<path d="M67.1813 68C64.6531 68 62.3911 67.408 60.3951 66.2241C58.3992 65.0402 56.8191 63.4287 55.6548 61.3897C54.5237 59.3507 53.9582 57.0322 53.9582 54.4341C53.9582 51.8689 54.5237 49.5668 55.6548 47.5278C56.8191 45.456 58.3992 43.828 60.3951 42.6441C62.3911 41.4602 64.6531 40.8682 67.1813 40.8682C69.5432 40.8682 71.7055 41.2957 73.6682 42.1508C75.6308 43.0059 77.161 44.1898 78.2588 45.7026L74.3667 50.3397C73.901 49.7148 73.3189 49.1557 72.6203 48.6624C71.9217 48.1362 71.1566 47.7252 70.325 47.4292C69.5266 47.1332 68.6949 46.9852 67.83 46.9852C66.4661 46.9852 65.2519 47.3141 64.1874 47.9718C63.1562 48.5967 62.3412 49.4682 61.7424 50.5863C61.1436 51.7045 60.8442 52.9871 60.8442 54.4341C60.8442 55.8482 61.1436 57.1144 61.7424 58.2326C62.3744 59.3178 63.2227 60.2058 64.2872 60.8964C65.3517 61.5541 66.5493 61.883 67.8799 61.883C68.7448 61.883 69.5598 61.7679 70.325 61.5377C71.0901 61.2746 71.8053 60.8964 72.4706 60.4031C73.1692 59.9098 73.8012 59.3178 74.3667 58.6272L78.2089 63.2643C77.0779 64.6784 75.5144 65.8295 73.5185 66.7174C71.5225 67.5725 69.4101 68 67.1813 68Z" fill="#1F2A37"/>
<path d="M82.7493 67.5067V34.495C82.7493 32.5659 84.3131 31.0021 86.2422 31.0021C88.1713 31.0021 89.7351 32.5659 89.7351 34.495V46.7385L88.3379 47.3305C88.7039 46.1466 89.3525 45.0778 90.284 44.124C91.2487 43.1374 92.3964 42.3481 93.727 41.7562C95.0576 41.1642 96.4548 40.8682 97.9185 40.8682C99.9144 40.8682 101.578 41.2629 102.908 42.0521C104.272 42.8414 105.287 44.0418 105.952 45.6533C106.651 47.2318 107 49.1886 107 51.5236V67.5067H99.9144V52.0662C99.9144 50.8823 99.7481 49.8957 99.4154 49.1064C99.0828 48.3171 98.5671 47.7416 97.8686 47.3798C97.2033 46.9852 96.3716 46.8208 95.3736 46.8865C94.5753 46.8865 93.8268 47.0181 93.1282 47.2812C92.4629 47.5114 91.8807 47.8567 91.3818 48.3171C90.916 48.7775 90.5335 49.3037 90.2341 49.8957C89.968 50.4877 89.8349 51.129 89.8349 51.8196V67.5067H86.342C84.8118 67.5067 83.6142 67.5067 82.7493 67.5067Z" fill="#1F2A37"/>
<path d="M116.937 67.5067L116.937 41.3093C116.937 37.3986 120.107 34.2284 124.017 34.2284L124.017 67.5067H116.937ZM112 47.1045C112 43.6442 114.805 40.8391 118.265 40.8391H129.403C129.403 44.2994 126.598 47.1045 123.138 47.1045H112Z" fill="#7F56D9"/>
<path d="M143.648 68C141.454 68 139.476 67.408 137.714 66.224C135.952 65.04 134.556 63.4284 133.525 61.3893C132.495 59.3502 131.979 57.0151 131.979 54.384C131.979 51.7529 132.495 49.4342 133.525 47.428C134.589 45.3889 136.019 43.7938 137.814 42.6427C139.609 41.4587 141.653 40.8667 143.947 40.8667C145.244 40.8667 146.424 41.064 147.487 41.4587C148.584 41.8204 149.532 42.3302 150.33 42.988C151.161 43.6458 151.859 44.4022 152.424 45.2573C152.989 46.1124 153.388 47.0333 153.621 48.02L152.125 47.7733V44.9248C152.125 42.9833 153.699 41.4093 155.64 41.4093C157.582 41.4093 159.156 42.9833 159.156 44.9248V63.9413C159.156 65.9104 157.56 67.5067 155.59 67.5067C153.621 67.5067 152.025 65.9104 152.025 63.9413V61.2413L153.621 61.0933C153.355 62.0142 152.923 62.8858 152.324 63.708C151.726 64.5302 150.978 65.2702 150.08 65.928C149.216 66.5529 148.235 67.0627 147.138 67.4573C146.041 67.8191 144.878 68 143.648 68ZM144.545 61.932C145.875 61.932 147.039 61.6196 148.036 60.9947C149.033 60.3698 149.798 59.4982 150.33 58.38C150.895 57.2289 151.177 55.8969 151.177 54.384C151.177 52.904 150.895 51.6049 150.33 50.4867C149.798 49.3684 149.033 48.4969 148.036 47.872C147.039 47.2142 145.875 46.8853 144.545 46.8853C143.249 46.8853 142.102 47.2142 141.105 47.872C140.141 48.4969 139.376 49.3684 138.811 50.4867C138.246 51.6049 137.963 52.904 137.963 54.384C137.963 55.8969 138.246 57.2289 138.811 58.38C139.376 59.4982 140.141 60.3698 141.105 60.9947C142.102 61.6196 143.249 61.932 144.545 61.932Z" fill="#7F56D9"/>
<path d="M169.845 67.5067C167.89 67.5067 166.305 65.9216 166.305 63.9663V34.5404C166.305 32.5851 167.89 31 169.845 31C171.801 31 173.386 32.5851 173.386 34.5404V63.9663C173.386 65.9216 171.801 67.5067 169.845 67.5067Z" fill="#7F56D9"/>
<path d="M187.303 59.6627L185.209 53.8907L196.754 42.3319C197.344 41.7412 198.144 41.4093 198.979 41.4093C201.839 41.4093 203.215 44.9173 201.117 46.8613L187.303 59.6627ZM184.112 67.5067C182.157 67.5067 180.572 65.9216 180.572 63.9663V34.5404C180.572 32.5851 182.157 31 184.112 31C186.067 31 187.652 32.5851 187.652 34.5404V63.9663C187.652 65.9216 186.067 67.5067 184.112 67.5067ZM199.993 67.5067C199 67.5067 198.062 67.0567 197.44 66.2832L188.949 55.716L193.935 51.7693L202.516 62.1452C204.282 64.2802 202.763 67.5067 199.993 67.5067Z" fill="#7F56D9"/>
<path d="M166.427 21.5992C166.027 22.9544 164.625 23.831 163.331 23.2632C162.651 22.9825 162.088 22.6316 161.641 22.2105C161.194 21.807 160.863 21.3158 160.648 20.7368C160.434 20.1579 160.326 19.5 160.326 18.7632L160.353 16.2632C160.353 15.386 160.157 14.7368 159.763 14.3158C159.37 13.8947 158.806 13.6754 158.073 13.6579C157.48 13.6579 157 13.1775 157 12.5848V11.4688C157 10.8466 157.504 10.3421 158.127 10.3421C158.86 10.3246 159.414 10.114 159.79 9.71053C160.166 9.28947 160.353 8.63158 160.353 7.73684L160.326 5.23684C160.326 3.79825 160.756 2.66667 161.614 1.84211C161.926 1.5429 162.299 1.27249 162.735 1.03087C164.306 0.159036 166.125 1.30985 166.658 3.02632C166.032 3.23684 165.54 3.44737 165.182 3.65789C164.824 3.85088 164.565 4.12281 164.404 4.47368C164.261 4.82456 164.19 5.29825 164.19 5.89474L164.243 8.10526C164.243 9.12281 163.921 9.97368 163.277 10.6579C162.651 11.3421 161.668 11.8509 160.326 12.1842L160.3 11.7895C161.659 12.1579 162.651 12.6842 163.277 13.3684C163.921 14.0526 164.243 14.8947 164.243 15.8947L164.19 18.1053C164.19 18.6667 164.261 19.1053 164.404 19.4211C164.565 19.7544 164.824 20.0175 165.182 20.2105C165.54 20.4035 166.032 20.6053 166.658 20.8158L166.427 21.5992Z" fill="#7F56D9"/>
<path d="M197.268 22.9544C195.696 23.8404 193.864 22.6929 193.316 20.9737C193.959 20.7632 194.451 20.5526 194.791 20.3421C195.149 20.1491 195.399 19.8772 195.542 19.5263C195.703 19.1754 195.784 18.7018 195.784 18.1053L195.73 15.8947C195.73 14.8772 196.043 14.0263 196.669 13.3421C197.313 12.6579 198.314 12.1491 199.674 11.8158V12.2105C198.314 11.8421 197.313 11.3158 196.669 10.6316C196.043 9.94737 195.73 9.10526 195.73 8.10526L195.784 5.89474C195.784 5.33333 195.712 4.89474 195.569 4.57895C195.426 4.24561 195.176 3.98246 194.818 3.78947C194.46 3.59649 193.959 3.39474 193.316 3.18421L193.557 2.38871C193.969 1.03098 195.37 0.14037 196.669 0.710527C197.349 1.00877 197.903 1.36842 198.332 1.78947C198.779 2.19298 199.11 2.68421 199.325 3.26316C199.557 3.84211 199.674 4.5 199.674 5.23684L199.647 7.73684C199.647 8.61403 199.834 9.26316 200.21 9.68421C200.604 10.1053 201.176 10.3246 201.927 10.3421C202.52 10.3421 203 10.8225 203 11.4152V12.5312C203 13.1534 202.496 13.6579 201.873 13.6579C201.122 13.6754 200.559 13.8947 200.183 14.3158C199.826 14.7193 199.647 15.3684 199.647 16.2632L199.674 18.7632C199.674 20.2018 199.235 21.3333 198.359 22.1579C198.054 22.451 197.69 22.7165 197.268 22.9544Z" fill="#7F56D9"/>
<path d="M173 7V17M180 3V22M188 7V17" stroke="#1F2A37" stroke-width="3.8" stroke-linecap="round" stroke-linejoin="round"/>
</svg>
