<svg width="100" height="20" viewBox="0 0 100 20" fill="none" xmlns="http://www.w3.org/2000/svg">
<path d="M5.00565 18.9566L5.00564 4.11041H0V3.9471C0 2.20782 1.40996 0.797852 3.14924 0.797852H13.8391V0.961166C13.8391 2.70045 12.4292 4.11041 10.6899 4.11041H8.68626L8.68627 18.9566H5.00565Z" fill="#1F2A37"/>
<path d="M19.1005 19.202C17.6936 19.202 16.4668 18.9157 15.4198 18.3432C14.3729 17.7706 13.555 16.9854 12.9661 15.9876C12.3772 14.9897 12.0827 13.8447 12.0827 12.5523C12.0827 11.5545 12.2463 10.6384 12.5735 9.80415C12.9007 8.96988 13.3587 8.25011 13.9476 7.64485C14.5365 7.02324 15.2317 6.54885 16.0333 6.22168C16.8512 5.87815 17.7345 5.70639 18.6833 5.70639C19.5667 5.70639 20.3846 5.86998 21.1371 6.19714C21.8895 6.50795 22.5357 6.9578 23.0755 7.5467C23.6317 8.11924 24.057 8.79811 24.3515 9.58331C24.6459 10.3685 24.7768 11.2273 24.7441 12.1597L24.7195 13.2394H14.2911L13.7267 11.1046H21.8486L21.4561 11.5463V11.0065C21.4233 10.5648 21.2761 10.164 21.0144 9.80415C20.769 9.44427 20.45 9.16618 20.0574 8.96988C19.6648 8.77358 19.2231 8.67543 18.7324 8.67543C18.0126 8.67543 17.3992 8.81447 16.8921 9.09256C16.4013 9.37065 16.0251 9.77961 15.7634 10.3194C15.5016 10.8593 15.3708 11.5136 15.3708 12.2824C15.3708 13.0676 15.5343 13.7465 15.8615 14.319C16.205 14.8916 16.6794 15.3414 17.2847 15.6686C17.9063 15.9794 18.6342 16.1348 19.4685 16.1348C20.0411 16.1348 20.5645 16.0448 21.0389 15.8649C21.5133 15.685 22.0204 15.3742 22.5602 14.9325L24.2288 17.2635C23.7544 17.6889 23.2309 18.0487 22.6584 18.3432C22.0858 18.6213 21.4969 18.8339 20.8917 18.9812C20.2864 19.1284 19.6893 19.202 19.1005 19.202Z" fill="#1F2A37"/>
<path d="M33.0362 19.202C31.793 19.202 30.6806 18.9075 29.6991 18.3186C28.7176 17.7298 27.9406 16.9282 27.3681 15.914C26.8119 14.8998 26.5338 13.7465 26.5338 12.4542C26.5338 11.1782 26.8119 10.0332 27.3681 9.01895C27.9406 7.98838 28.7176 7.17864 29.6991 6.58974C30.6806 6.00084 31.793 5.70639 33.0362 5.70639C34.1977 5.70639 35.261 5.91905 36.2261 6.34437C37.1912 6.76968 37.9437 7.35858 38.4835 8.11106L36.5696 10.4176C36.3406 10.1068 36.0543 9.82869 35.7108 9.58331C35.3673 9.32158 34.991 9.1171 34.5821 8.96988C34.1895 8.82265 33.7805 8.74904 33.3552 8.74904C32.6845 8.74904 32.0874 8.91262 31.564 9.23979C31.0569 9.5506 30.6561 9.98409 30.3616 10.5403C30.0672 11.0965 29.92 11.7344 29.92 12.4542C29.92 13.1576 30.0672 13.7874 30.3616 14.3436C30.6724 14.8834 31.0896 15.3251 31.613 15.6686C32.1365 15.9958 32.7254 16.1594 33.3797 16.1594C33.8051 16.1594 34.2058 16.1021 34.5821 15.9876C34.9583 15.8567 35.31 15.6686 35.6372 15.4232C35.9807 15.1779 36.2915 14.8834 36.5696 14.5399L38.459 16.8464C37.9028 17.5498 37.134 18.1224 36.1525 18.564C35.171 18.9893 34.1322 19.202 33.0362 19.202Z" fill="#1F2A37"/>
<path d="M40.6917 18.9566V2.51653C40.6917 1.56791 41.4607 0.7989 42.4093 0.7989C43.358 0.7989 44.127 1.56791 44.127 2.51652V8.62635L43.4399 8.9208C43.6199 8.3319 43.9388 7.80026 44.3969 7.32587C44.8713 6.83512 45.4356 6.44252 46.09 6.14807C46.7443 5.85362 47.4313 5.70639 48.1511 5.70639C49.1326 5.70639 49.9505 5.90269 50.6049 6.29529C51.2755 6.68789 51.7745 7.28497 52.1016 8.08653C52.4452 8.87173 52.6169 9.84504 52.6169 11.0065V18.9566H49.1326V11.2764C49.1326 10.6875 49.0508 10.1967 48.8872 9.80415C48.7237 9.41155 48.4701 9.12528 48.1266 8.94534C47.7994 8.74904 47.3904 8.66725 46.8997 8.69996C46.5071 8.69996 46.139 8.7654 45.7955 8.89626C45.4683 9.01077 45.1821 9.18253 44.9367 9.41155C44.7077 9.64057 44.5196 9.9023 44.3723 10.1967C44.2415 10.4912 44.176 10.8102 44.176 11.1537V18.9566H42.4584C41.7059 18.9566 41.117 18.9566 40.6917 18.9566Z" fill="#1F2A37"/>
<path d="M57.4999 18.9556L57.4999 5.55287C57.4999 3.81359 58.9098 2.40362 60.6491 2.40362H60.9842L60.9842 18.9556H57.4999ZM55.0707 8.8079C55.0707 7.08684 56.4659 5.69164 58.1869 5.69164H63.6342C63.6342 7.4127 62.239 8.8079 60.518 8.8079H55.0707Z" fill="#1F2A37"/>
<path d="M70.6439 19.201C69.5643 19.201 68.5909 18.9065 67.724 18.3176C66.857 17.7287 66.1699 16.9271 65.6628 15.9129C65.1557 14.8987 64.9022 13.7373 64.9022 12.4286C64.9022 11.1199 65.1557 9.96668 65.6628 8.96883C66.1863 7.95461 66.8897 7.16123 67.773 6.58869C68.6564 5.99979 69.6624 5.70534 70.7911 5.70534C71.4291 5.70534 72.0098 5.80349 72.5333 5.99979C73.0731 6.17974 73.5393 6.43329 73.9319 6.76046C74.3409 7.08762 74.6844 7.46386 74.9625 7.88918C75.2406 8.3145 75.4369 8.77253 75.5514 9.26328L74.8153 9.14059V7.70515C74.8153 6.74976 75.5898 5.97526 76.5452 5.97526C77.5006 5.97526 78.2751 6.74976 78.2751 7.70515V17.2011C78.2751 18.1701 77.4896 18.9556 76.5206 18.9556C75.5517 18.9556 74.7662 18.1701 74.7662 17.2011V15.8393L75.5514 15.7657C75.4205 16.2237 75.2079 16.6572 74.9134 17.0662C74.619 17.4751 74.2509 17.8432 73.8093 18.1704C73.3839 18.4812 72.9014 18.7347 72.3615 18.931C71.8217 19.111 71.2492 19.201 70.6439 19.201ZM71.0856 16.1828C71.7399 16.1828 72.3125 16.0274 72.8032 15.7166C73.294 15.4058 73.6702 14.9723 73.9319 14.4161C74.21 13.8436 74.3491 13.1811 74.3491 12.4286C74.3491 11.6925 74.21 11.0463 73.9319 10.4902C73.6702 9.93397 73.294 9.50047 72.8032 9.18966C72.3125 8.8625 71.7399 8.69892 71.0856 8.69892C70.4476 8.69892 69.8833 8.8625 69.3925 9.18966C68.9181 9.50047 68.5419 9.93397 68.2638 10.4902C67.9857 11.0463 67.8466 11.6925 67.8466 12.4286C67.8466 13.1811 67.9857 13.8436 68.2638 14.4161C68.5419 14.9723 68.9181 15.4058 69.3925 15.7166C69.8833 16.0274 70.4476 16.1828 71.0856 16.1828Z" fill="#1F2A37"/>
<path d="M83.5351 18.9556C82.5729 18.9556 81.7929 18.1756 81.7929 17.2134V2.54001C81.7929 1.57785 82.5729 0.797852 83.5351 0.797852C84.4973 0.797852 85.2773 1.57784 85.2773 2.54001V17.2134C85.2773 18.1756 84.4973 18.9556 83.5351 18.9556Z" fill="#1F2A37"/>
<path d="M92.1259 15.0541L91.0953 12.1832L96.7727 6.43772C97.0651 6.1418 97.4638 5.97526 97.8798 5.97526C99.2911 5.97526 99.9739 7.70284 98.9439 8.66765L92.1259 15.0541ZM90.5555 18.9556C89.5933 18.9556 88.8133 18.1756 88.8133 17.2134V2.54001C88.8133 1.57784 89.5933 0.797852 90.5555 0.797852C91.5177 0.797852 92.2977 1.57784 92.2977 2.54001V17.2134C92.2977 18.1756 91.5177 18.9556 90.5555 18.9556ZM98.3786 18.9556C97.8852 18.9556 97.4188 18.7305 97.1118 18.3443L92.9356 13.0911L95.3894 11.1281L99.6311 16.3125C100.496 17.3691 99.7439 18.9556 98.3786 18.9556Z" fill="#1F2A37"/>
</svg>
