<svg width="16" height="16" viewBox="0 0 16 16" fill="none" xmlns="http://www.w3.org/2000/svg">
<path d="M5.66665 12.6667H5.33331C2.66665 12.6667 1.33331 12 1.33331 8.66671V5.33337C1.33331 2.66671 2.66665 1.33337 5.33331 1.33337H10.6666C13.3333 1.33337 14.6666 2.66671 14.6666 5.33337V8.66671C14.6666 11.3334 13.3333 12.6667 10.6666 12.6667H10.3333C10.1266 12.6667 9.92665 12.7667 9.79998 12.9334L8.79998 14.2667C8.35998 14.8534 7.63998 14.8534 7.19998 14.2667L6.19998 12.9334C6.09331 12.7867 5.84665 12.6667 5.66665 12.6667Z" stroke="#667085" stroke-miterlimit="10" stroke-linecap="round" stroke-linejoin="round"/>
<path d="M10.6643 7.33333H10.6703" stroke="#667085" stroke-linecap="round" stroke-linejoin="round"/>
<path d="M7.99697 7.33333H8.00296" stroke="#667085" stroke-linecap="round" stroke-linejoin="round"/>
<path d="M5.32967 7.33333H5.33566" stroke="#667085" stroke-linecap="round" stroke-linejoin="round"/>
</svg>
