<svg width="40" height="40" viewBox="0 0 40 40" fill="none" xmlns="http://www.w3.org/2000/svg">
<path d="M20 27.0834C15.6333 27.0834 12.0833 23.5334 12.0833 19.1667V10C12.0833 5.63337 15.6333 2.08337 20 2.08337C24.3667 2.08337 27.9167 5.63337 27.9167 10V19.1667C27.9167 23.5334 24.3667 27.0834 20 27.0834ZM20 4.58337C17.0167 4.58337 14.5833 7.01671 14.5833 10V19.1667C14.5833 22.15 17.0167 24.5834 20 24.5834C22.9833 24.5834 25.4167 22.15 25.4167 19.1667V10C25.4167 7.01671 22.9833 4.58337 20 4.58337Z" fill="white"/>
<path d="M20 32.9167C12.2833 32.9167 6 26.6334 6 18.9167V16.0834C6 15.4 6.56667 14.8334 7.25 14.8334C7.93333 14.8334 8.5 15.4 8.5 16.0834V18.9167C8.5 25.25 13.6667 30.4167 20 30.4167C26.3333 30.4167 31.5 25.25 31.5 18.9167V16.0834C31.5 15.4 32.0667 14.8334 32.75 14.8334C33.4333 14.8334 34 15.4 34 16.0834V18.9167C34 26.6334 27.7167 32.9167 20 32.9167Z" fill="white"/>
<path d="M22.3167 11.9666C22.1833 11.9666 22.0333 11.95 21.8833 11.9C20.6667 11.45 19.3333 11.45 18.1167 11.9C17.4667 12.1333 16.75 11.8 16.5167 11.15C16.2833 10.5 16.6167 9.78328 17.2667 9.54995C19.0333 8.91662 20.9833 8.91662 22.75 9.54995C23.4 9.78328 23.7333 10.5 23.5 11.15C23.3 11.65 22.8167 11.9666 22.3167 11.9666Z" fill="white"/>
<path d="M21.3333 15.5C21.2167 15.5 21.1167 15.4833 21 15.45C20.3333 15.2666 19.65 15.2666 18.9833 15.45C18.3167 15.6333 17.6333 15.2333 17.45 14.5666C17.2667 13.9166 17.6667 13.2333 18.3333 13.05C19.4167 12.75 20.5833 12.75 21.6667 13.05C22.3333 13.2333 22.7333 13.9166 22.55 14.5833C22.4 15.1333 21.8833 15.5 21.3333 15.5Z" fill="white"/>
<path d="M20 37.9166C19.3167 37.9166 18.75 37.35 18.75 36.6666V31.6666C18.75 30.9833 19.3167 30.4166 20 30.4166C20.6833 30.4166 21.25 30.9833 21.25 31.6666V36.6666C21.25 37.35 20.6833 37.9166 20 37.9166Z" fill="white"/>
</svg>
