<svg width="32" height="32" viewBox="0 0 32 32" fill="none" xmlns="http://www.w3.org/2000/svg">
<path opacity="0.4" d="M25.4933 12.1599C24.9733 12.1599 24.56 12.5733 24.56 13.0933V15.1999C24.56 19.9199 20.72 23.7599 16 23.7599C11.28 23.7599 7.44 19.9199 7.44 15.1999V13.0799C7.44 12.5599 7.02667 12.1466 6.50667 12.1466C5.98667 12.1466 5.57333 12.5599 5.57333 13.0799V15.1866C5.57333 20.6133 9.74667 25.0799 15.0667 25.5599V28.3999C15.0667 28.9199 15.48 29.3333 16 29.3333C16.52 29.3333 16.9333 28.9199 16.9333 28.3999V25.5599C22.24 25.0933 26.4267 20.6133 26.4267 15.1866V13.0799C26.4133 12.5733 26 12.1599 25.4933 12.1599Z" fill="#8646F4"/>
<path d="M16 2.66663C12.7467 2.66663 10.1067 5.30663 10.1067 8.55996V15.3866C10.1067 18.64 12.7467 21.28 16 21.28C19.2533 21.28 21.8933 18.64 21.8933 15.3866V8.55996C21.8933 5.30663 19.2533 2.66663 16 2.66663ZM17.7467 11.9333C17.6533 12.28 17.3467 12.5066 17 12.5066C16.9333 12.5066 16.8667 12.4933 16.8 12.48C16.28 12.3333 15.7333 12.3333 15.2133 12.48C14.7867 12.6 14.3733 12.3466 14.2667 11.9333C14.1467 11.52 14.4 11.0933 14.8133 10.9866C15.6 10.7733 16.4267 10.7733 17.2133 10.9866C17.6133 11.0933 17.8533 11.52 17.7467 11.9333ZM18.4533 9.34663C18.3333 9.66663 18.04 9.85329 17.72 9.85329C17.6267 9.85329 17.5467 9.83996 17.4533 9.81329C16.52 9.46663 15.48 9.46663 14.5467 9.81329C14.1467 9.95996 13.6933 9.74663 13.5467 9.34663C13.4 8.94663 13.6133 8.49329 14.0133 8.35996C15.2933 7.89329 16.7067 7.89329 17.9867 8.35996C18.3867 8.50663 18.6 8.94663 18.4533 9.34663Z" fill="#8646F4"/>
</svg>
