<svg width="32" height="32" viewBox="0 0 32 32" fill="none" xmlns="http://www.w3.org/2000/svg">
<path d="M25.4933 12.16C24.9733 12.16 24.56 12.5733 24.56 13.0933V15.2C24.56 19.92 20.72 23.76 16 23.76C11.28 23.76 7.44 19.92 7.44 15.2V13.08C7.44 12.56 7.02667 12.1467 6.50667 12.1467C5.98667 12.1467 5.57333 12.56 5.57333 13.08V15.1867C5.57333 20.6133 9.74667 25.08 15.0667 25.56V28.4C15.0667 28.92 15.48 29.3333 16 29.3333C16.52 29.3333 16.9333 28.92 16.9333 28.4V25.56C22.24 25.0933 26.4267 20.6133 26.4267 15.1867V13.08C26.4133 12.5733 26 12.16 25.4933 12.16Z" fill="#1F2937"/>
<path d="M16 2.66667C12.7467 2.66667 10.1067 5.30667 10.1067 8.56001V15.3867C10.1067 18.64 12.7467 21.28 16 21.28C19.2533 21.28 21.8933 18.64 21.8933 15.3867V8.56001C21.8933 5.30667 19.2533 2.66667 16 2.66667ZM17.7467 11.9333C17.6533 12.28 17.3467 12.5067 17 12.5067C16.9333 12.5067 16.8667 12.4933 16.8 12.48C16.28 12.3333 15.7333 12.3333 15.2133 12.48C14.7867 12.6 14.3733 12.3467 14.2667 11.9333C14.1467 11.52 14.4 11.0933 14.8133 10.9867C15.6 10.7733 16.4267 10.7733 17.2133 10.9867C17.6133 11.0933 17.8533 11.52 17.7467 11.9333ZM18.4533 9.34667C18.3333 9.66667 18.04 9.85334 17.72 9.85334C17.6267 9.85334 17.5467 9.84001 17.4533 9.81334C16.52 9.46667 15.48 9.46667 14.5467 9.81334C14.1467 9.96001 13.6933 9.74667 13.5467 9.34667C13.4 8.94667 13.6133 8.49334 14.0133 8.36001C15.2933 7.89334 16.7067 7.89334 17.9867 8.36001C18.3867 8.50667 18.6 8.94667 18.4533 9.34667Z" fill="#1F2937"/>
</svg>
