<svg width="32" height="32" viewBox="0 0 32 32" fill="none" xmlns="http://www.w3.org/2000/svg">
<path d="M17.5733 15.8133C17.04 15.8133 16.56 15.52 16.3333 15.04L14.4 11.1867L13.84 12.2267C13.5333 12.8 12.92 13.16 12.2667 13.16H11.2933C10.7467 13.16 10.2933 12.7067 10.2933 12.16C10.2933 11.6133 10.7467 11.16 11.2933 11.16H12.1467L13.2 9.21333C13.4533 8.76 13.96 8.45333 14.44 8.48C14.96 8.48 15.4267 8.78666 15.6667 9.24L17.5733 13.0533L18.0267 12.1333C18.3333 11.52 18.9333 11.1467 19.6267 11.1467H20.7067C21.2533 11.1467 21.7067 11.6 21.7067 12.1467C21.7067 12.6933 21.2533 13.1467 20.7067 13.1467H19.76L18.8133 15.0267C18.5733 15.52 18.1067 15.8133 17.5733 15.8133Z" fill="#1F2937"/>
<path d="M3.66667 24.8667C3.12 24.8667 2.66667 24.4133 2.66667 23.8667V16.2667C2.6 12.6533 3.94667 9.24 6.45334 6.68C8.96 4.13333 12.32 2.73333 15.9333 2.73333C23.32 2.73333 29.3333 8.74667 29.3333 16.1333V23.7333C29.3333 24.28 28.88 24.7333 28.3333 24.7333C27.7867 24.7333 27.3333 24.28 27.3333 23.7333V16.1333C27.3333 9.85333 22.2267 4.73333 15.9333 4.73333C12.8533 4.73333 10 5.92 7.88 8.08C5.74667 10.2533 4.61334 13.1467 4.66667 16.24V23.8533C4.66667 24.4133 4.22667 24.8667 3.66667 24.8667Z" fill="#1F2937"/>
<path d="M7.92 16.6H7.74667C4.94667 16.6 2.66667 18.88 2.66667 21.68V24.1867C2.66667 26.9867 4.94667 29.2667 7.74667 29.2667H7.92C10.72 29.2667 13 26.9867 13 24.1867V21.68C13 18.88 10.72 16.6 7.92 16.6Z" fill="#1F2937"/>
<path d="M24.2533 16.6H24.08C21.28 16.6 19 18.88 19 21.68V24.1867C19 26.9867 21.28 29.2667 24.08 29.2667H24.2533C27.0533 29.2667 29.3333 26.9867 29.3333 24.1867V21.68C29.3333 18.88 27.0533 16.6 24.2533 16.6Z" fill="#1F2937"/>
</svg>
