<svg width="49" height="55" viewBox="0 0 49 55" fill="none" xmlns="http://www.w3.org/2000/svg">
<path opacity="0.4" d="M40.5 0.833008H8.5C4.07333 0.833008 0.5 4.37967 0.5 8.75301V37.8463C0.5 42.2197 4.07333 45.7663 8.5 45.7663H10.5267C12.66 45.7663 14.6867 46.593 16.18 48.0863L20.74 52.593C22.82 54.6463 26.2067 54.6463 28.2867 52.593L32.8467 48.0863C34.34 46.593 36.3933 45.7663 38.5 45.7663H40.5C44.9267 45.7663 48.5 42.2197 48.5 37.8463V8.75301C48.5 4.37967 44.9267 0.833008 40.5 0.833008ZM24.5 8.96634C27.38 8.96634 29.7 11.313 29.7 14.1663C29.7 16.993 27.46 19.2597 24.6867 19.3663C24.58 19.3663 24.42 19.3663 24.2867 19.3663C21.4867 19.2597 19.2733 16.993 19.2733 14.1663C19.3 11.313 21.62 8.96634 24.5 8.96634ZM31.8333 36.0063C27.8067 38.6997 21.1933 38.6997 17.1667 36.0063C13.62 33.6597 13.62 29.7663 17.1667 27.393C21.22 24.6997 27.8333 24.6997 31.8333 27.393C35.38 29.7663 35.38 33.633 31.8333 36.0063Z" fill="#9CA3AF"/>
</svg>
