<svg width="32" height="32" viewBox="0 0 32 32" fill="none" xmlns="http://www.w3.org/2000/svg">
<path opacity="0.4" d="M23.9968 9.54663C23.9168 9.5333 23.8235 9.5333 23.7435 9.54663C21.9035 9.47996 20.4368 7.9733 20.4368 6.10663C20.4368 4.19996 21.9702 2.66663 23.8768 2.66663C25.7835 2.66663 27.3168 4.2133 27.3168 6.10663C27.3035 7.9733 25.8368 9.47996 23.9968 9.54663Z" stroke="#8646F4" stroke-width="1.5" stroke-linecap="round" stroke-linejoin="round"/>
<g opacity="0.4">
<path d="M22.6233 19.2534C24.45 19.5601 26.4633 19.2401 27.8767 18.2934C29.7567 17.0401 29.7567 14.9867 27.8767 13.7334C26.45 12.7867 24.41 12.4667 22.5833 12.7867" fill="#8646F4"/>
<path d="M22.6233 19.2534C24.45 19.5601 26.4633 19.2401 27.8767 18.2934C29.7567 17.0401 29.7567 14.9867 27.8767 13.7334C26.45 12.7867 24.41 12.4667 22.5833 12.7867" stroke="#8646F4" stroke-width="1.5" stroke-linecap="round" stroke-linejoin="round"/>
</g>
<path opacity="0.4" d="M7.95666 9.54663C8.03666 9.5333 8.12999 9.5333 8.20999 9.54663C10.05 9.47996 11.5167 7.9733 11.5167 6.10663C11.5167 4.19996 9.98333 2.66663 8.07666 2.66663C6.16999 2.66663 4.63666 4.2133 4.63666 6.10663C4.64999 7.9733 6.11666 9.47996 7.95666 9.54663Z" fill="#8646F4" stroke="#8646F4" stroke-width="1.5" stroke-linecap="round" stroke-linejoin="round"/>
<g opacity="0.4">
<path d="M9.33 19.2534C7.50334 19.5601 5.49 19.2401 4.07667 18.2934C2.19667 17.0401 2.19667 14.9867 4.07667 13.7334C5.50334 12.7867 7.54333 12.4667 9.37 12.7867" fill="#8646F4"/>
<path d="M9.33 19.2534C7.50334 19.5601 5.49 19.2401 4.07667 18.2934C2.19667 17.0401 2.19667 14.9867 4.07667 13.7334C5.50334 12.7867 7.54333 12.4667 9.37 12.7867" stroke="#8646F4" stroke-width="1.5" stroke-linecap="round" stroke-linejoin="round"/>
</g>
<path d="M16 19.5067C15.92 19.4934 15.8267 19.4934 15.7467 19.5067C13.9067 19.44 12.44 17.9334 12.44 16.0667C12.44 14.16 13.9733 12.6267 15.88 12.6267C17.7867 12.6267 19.32 14.1734 19.32 16.0667C19.3067 17.9334 17.84 19.4534 16 19.5067Z" fill="#8646F4" stroke="#8646F4" stroke-width="1.5" stroke-linecap="round" stroke-linejoin="round"/>
<path d="M12.12 23.7067C10.24 24.9601 10.24 27.0134 12.12 28.2667C14.2533 29.6934 17.7467 29.6934 19.88 28.2667C21.76 27.0134 21.76 24.9601 19.88 23.7067C17.76 22.2934 14.2533 22.2934 12.12 23.7067Z" fill="#8646F4" stroke="#8646F4" stroke-width="1.5" stroke-linecap="round" stroke-linejoin="round"/>
</svg>
