<svg width="16" height="16" viewBox="0 0 16 16" fill="none" xmlns="http://www.w3.org/2000/svg">
<path d="M6.00005 2.44995H2.00005C1.15005 2.44995 0.425049 3.14995 0.425049 4.02495V8.02495C0.425049 8.87495 1.12505 9.59995 2.00005 9.59995H2.37505C2.60005 9.59995 2.70005 9.74995 2.75005 9.79995C2.80005 9.84995 2.87505 10.025 2.77505 10.225L2.22505 11.325C1.97505 11.825 2.00005 12.375 2.30005 12.85C2.57505 13.325 3.07505 13.6 3.62505 13.6H4.40005C5.00005 13.6 5.52505 13.275 5.80005 12.725L7.42505 9.49995C7.52505 9.27495 7.60005 9.04995 7.60005 8.79995V3.99995C7.57505 3.14995 6.85005 2.44995 6.00005 2.44995ZM6.45005 8.77495C6.45005 8.84995 6.42505 8.89995 6.40005 8.97495L4.77505 12.2C4.70005 12.35 4.55005 12.45 4.37505 12.45H3.60005C3.37505 12.45 3.27505 12.3 3.22505 12.25C3.17505 12.2 3.10005 12.025 3.20005 11.825L3.75005 10.725C4.00005 10.225 3.97505 9.67495 3.67505 9.19995C3.40005 8.72495 2.90005 8.44995 2.35005 8.44995H2.00005C1.75005 8.44995 1.55005 8.24995 1.55005 7.99995V3.99995C1.55005 3.74995 1.75005 3.54995 2.00005 3.54995H6.00005C6.25005 3.54995 6.45005 3.74995 6.45005 3.99995V8.77495Z" fill="#6B7280"/>
<path d="M14 2.44995H10C9.15005 2.44995 8.42505 3.14995 8.42505 4.02495V8.02495C8.42505 8.87495 9.12505 9.59995 10 9.59995H10.375C10.6 9.59995 10.7 9.74995 10.75 9.79995C10.8 9.84995 10.875 10.025 10.775 10.225L10.225 11.325C9.97505 11.825 10 12.375 10.3 12.85C10.575 13.325 11.075 13.6 11.625 13.6H12.4C13 13.6 13.525 13.275 13.8 12.725L15.425 9.49995C15.525 9.27495 15.6 9.04995 15.6 8.79995V3.99995C15.575 3.14995 14.85 2.44995 14 2.44995ZM14.45 8.77495C14.45 8.84995 14.425 8.89995 14.4 8.97495L12.775 12.2C12.7 12.35 12.55 12.45 12.375 12.45H11.6C11.375 12.45 11.275 12.3 11.225 12.25C11.175 12.2 11.1 12.025 11.2 11.825L11.75 10.725C12 10.225 11.975 9.67495 11.675 9.19995C11.4 8.72495 10.9 8.44995 10.35 8.44995H10C9.75005 8.44995 9.55005 8.24995 9.55005 7.99995V3.99995C9.55005 3.74995 9.75005 3.54995 10 3.54995H14C14.25 3.54995 14.45 3.74995 14.45 3.99995V8.77495Z" fill="#6B7280"/>
</svg>
