<svg width="192" height="145" viewBox="0 0 192 145" fill="none" xmlns="http://www.w3.org/2000/svg">
<path d="M179 0H59C53.4772 0 49 4.47715 49 10V130C49 135.523 53.4772 140 59 140H179C184.523 140 189 135.523 189 130V10C189 4.47715 184.523 0 179 0Z" fill="#E4E4E7"/>
<g filter="url(#filter0_d_1270_31990)">
<path d="M163 11H28C25.2386 11 23 13.2386 23 16V41C23 43.7614 25.2386 46 28 46H163C165.761 46 168 43.7614 168 41V16C168 13.2386 165.761 11 163 11Z" fill="white"/>
<g opacity="0.5">
<path opacity="0.4" d="M50.9334 25.6C50.6084 25.6 50.3501 25.8583 50.3501 26.1833V27.5C50.3501 30.45 47.9501 32.85 45.0001 32.85C42.0501 32.85 39.6501 30.45 39.6501 27.5V26.175C39.6501 25.85 39.3917 25.5917 39.0667 25.5917C38.7417 25.5917 38.4834 25.85 38.4834 26.175V27.4917C38.4834 30.8833 41.0917 33.675 44.4167 33.975V35.75C44.4167 36.075 44.6751 36.3333 45.0001 36.3333C45.3251 36.3333 45.5834 36.075 45.5834 35.75V33.975C48.9001 33.6833 51.5167 30.8833 51.5167 27.4917V26.175C51.5084 25.8583 51.2501 25.6 50.9334 25.6Z" fill="#94A3B8"/>
<path d="M45 19.6667C42.9667 19.6667 41.3167 21.3167 41.3167 23.35V27.6167C41.3167 29.65 42.9667 31.3 45 31.3C47.0333 31.3 48.6833 29.65 48.6833 27.6167V23.35C48.6833 21.3167 47.0333 19.6667 45 19.6667ZM46.0917 25.4584C46.0333 25.675 45.8417 25.8167 45.625 25.8167C45.5833 25.8167 45.5417 25.8084 45.5 25.8C45.175 25.7084 44.8333 25.7084 44.5083 25.8C44.2417 25.875 43.9833 25.7167 43.9167 25.4584C43.8417 25.2 44 24.9334 44.2583 24.8667C44.75 24.7334 45.2667 24.7334 45.7583 24.8667C46.0083 24.9334 46.1583 25.2 46.0917 25.4584ZM46.5333 23.8417C46.4583 24.0417 46.275 24.1584 46.075 24.1584C46.0167 24.1584 45.9667 24.15 45.9083 24.1334C45.325 23.9167 44.675 23.9167 44.0917 24.1334C43.8417 24.225 43.5583 24.0917 43.4667 23.8417C43.375 23.5917 43.5083 23.3084 43.7583 23.225C44.5583 22.9334 45.4417 22.9334 46.2417 23.225C46.4917 23.3167 46.625 23.5917 46.5333 23.8417Z" fill="#94A3B8"/>
</g>
</g>
<path d="M100 19H74C72.3431 19 71 20.3431 71 22C71 23.6569 72.3431 25 74 25H100C101.657 25 103 23.6569 103 22C103 20.3431 101.657 19 100 19Z" fill="#E4E4E7"/>
<path d="M118 32H74C72.3431 32 71 33.3431 71 35C71 36.6569 72.3431 38 74 38H118C119.657 38 121 36.6569 121 35C121 33.3431 119.657 32 118 32Z" fill="#94A3B8"/>
<g filter="url(#filter1_d_1270_31990)">
<path d="M181 56H46C43.2386 56 41 58.2386 41 61V86C41 88.7614 43.2386 91 46 91H181C183.761 91 186 88.7614 186 86V61C186 58.2386 183.761 56 181 56Z" fill="white"/>
<g opacity="0.5">
<path opacity="0.4" d="M68.9334 70.6C68.6084 70.6 68.3501 70.8583 68.3501 71.1833V72.5C68.3501 75.45 65.9501 77.85 63.0001 77.85C60.0501 77.85 57.6501 75.45 57.6501 72.5V71.175C57.6501 70.85 57.3917 70.5917 57.0667 70.5917C56.7417 70.5917 56.4834 70.85 56.4834 71.175V72.4917C56.4834 75.8833 59.0917 78.675 62.4167 78.975V80.75C62.4167 81.075 62.6751 81.3333 63.0001 81.3333C63.3251 81.3333 63.5834 81.075 63.5834 80.75V78.975C66.9001 78.6833 69.5167 75.8833 69.5167 72.4917V71.175C69.5084 70.8583 69.2501 70.6 68.9334 70.6Z" fill="#94A3B8"/>
<path d="M63 64.6667C60.9667 64.6667 59.3167 66.3167 59.3167 68.35V72.6167C59.3167 74.65 60.9667 76.3 63 76.3C65.0333 76.3 66.6833 74.65 66.6833 72.6167V68.35C66.6833 66.3167 65.0333 64.6667 63 64.6667ZM64.0917 70.4584C64.0333 70.675 63.8417 70.8167 63.625 70.8167C63.5833 70.8167 63.5417 70.8084 63.5 70.8C63.175 70.7084 62.8333 70.7084 62.5083 70.8C62.2417 70.875 61.9833 70.7167 61.9167 70.4584C61.8417 70.2 62 69.9334 62.2583 69.8667C62.75 69.7334 63.2667 69.7334 63.7583 69.8667C64.0083 69.9334 64.1583 70.2 64.0917 70.4584ZM64.5333 68.8417C64.4583 69.0417 64.275 69.1584 64.075 69.1584C64.0167 69.1584 63.9667 69.15 63.9083 69.1334C63.325 68.9167 62.675 68.9167 62.0917 69.1334C61.8417 69.225 61.5583 69.0917 61.4667 68.8417C61.375 68.5917 61.5083 68.3084 61.7583 68.225C62.5583 67.9334 63.4417 67.9334 64.2417 68.225C64.4917 68.3167 64.625 68.5917 64.5333 68.8417Z" fill="#94A3B8"/>
</g>
</g>
<path d="M118 64H92C90.3431 64 89 65.3431 89 67C89 68.6569 90.3431 70 92 70H118C119.657 70 121 68.6569 121 67C121 65.3431 119.657 64 118 64Z" fill="#E4E4E7"/>
<path d="M136 77H92C90.3431 77 89 78.3431 89 80C89 81.6569 90.3431 83 92 83H136C137.657 83 139 81.6569 139 80C139 78.3431 137.657 77 136 77Z" fill="#94A3B8"/>
<g filter="url(#filter2_d_1270_31990)">
<path d="M146 101H11C8.23858 101 6 103.239 6 106V131C6 133.761 8.23858 136 11 136H146C148.761 136 151 133.761 151 131V106C151 103.239 148.761 101 146 101Z" fill="white"/>
<g opacity="0.5">
<path opacity="0.4" d="M33.9334 115.6C33.6084 115.6 33.3501 115.858 33.3501 116.183V117.5C33.3501 120.45 30.9501 122.85 28.0001 122.85C25.0501 122.85 22.6501 120.45 22.6501 117.5V116.175C22.6501 115.85 22.3917 115.592 22.0667 115.592C21.7417 115.592 21.4834 115.85 21.4834 116.175V117.492C21.4834 120.883 24.0917 123.675 27.4167 123.975V125.75C27.4167 126.075 27.6751 126.333 28.0001 126.333C28.3251 126.333 28.5834 126.075 28.5834 125.75V123.975C31.9001 123.683 34.5167 120.883 34.5167 117.492V116.175C34.5084 115.858 34.2501 115.6 33.9334 115.6Z" fill="#94A3B8"/>
<path d="M28 109.667C25.9667 109.667 24.3167 111.317 24.3167 113.35V117.617C24.3167 119.65 25.9667 121.3 28 121.3C30.0333 121.3 31.6833 119.65 31.6833 117.617V113.35C31.6833 111.317 30.0333 109.667 28 109.667ZM29.0917 115.458C29.0333 115.675 28.8417 115.817 28.625 115.817C28.5833 115.817 28.5417 115.808 28.5 115.8C28.175 115.708 27.8333 115.708 27.5083 115.8C27.2417 115.875 26.9833 115.717 26.9167 115.458C26.8417 115.2 27 114.933 27.2583 114.867C27.75 114.733 28.2667 114.733 28.7583 114.867C29.0083 114.933 29.1583 115.2 29.0917 115.458ZM29.5333 113.842C29.4583 114.042 29.275 114.158 29.075 114.158C29.0167 114.158 28.9667 114.15 28.9083 114.133C28.325 113.917 27.675 113.917 27.0917 114.133C26.8417 114.225 26.5583 114.092 26.4667 113.842C26.375 113.592 26.5083 113.308 26.7583 113.225C27.5583 112.933 28.4417 112.933 29.2417 113.225C29.4917 113.317 29.625 113.592 29.5333 113.842Z" fill="#94A3B8"/>
</g>
</g>
<path d="M83 109H57C55.3431 109 54 110.343 54 112C54 113.657 55.3431 115 57 115H83C84.6569 115 86 113.657 86 112C86 110.343 84.6569 109 83 109Z" fill="#E4E4E7"/>
<path d="M101 122H57C55.3431 122 54 123.343 54 125C54 126.657 55.3431 128 57 128H101C102.657 128 104 126.657 104 125C104 123.343 102.657 122 101 122Z" fill="#94A3B8"/>
<defs>
<filter id="filter0_d_1270_31990" x="17" y="8" width="157" height="47" filterUnits="userSpaceOnUse" color-interpolation-filters="sRGB">
<feFlood flood-opacity="0" result="BackgroundImageFix"/>
<feColorMatrix in="SourceAlpha" type="matrix" values="0 0 0 0 0 0 0 0 0 0 0 0 0 0 0 0 0 0 127 0" result="hardAlpha"/>
<feOffset dy="3"/>
<feGaussianBlur stdDeviation="3"/>
<feColorMatrix type="matrix" values="0 0 0 0 0 0 0 0 0 0 0 0 0 0 0 0 0 0 0.161 0"/>
<feBlend mode="normal" in2="BackgroundImageFix" result="effect1_dropShadow_1270_31990"/>
<feBlend mode="normal" in="SourceGraphic" in2="effect1_dropShadow_1270_31990" result="shape"/>
</filter>
<filter id="filter1_d_1270_31990" x="35" y="53" width="157" height="47" filterUnits="userSpaceOnUse" color-interpolation-filters="sRGB">
<feFlood flood-opacity="0" result="BackgroundImageFix"/>
<feColorMatrix in="SourceAlpha" type="matrix" values="0 0 0 0 0 0 0 0 0 0 0 0 0 0 0 0 0 0 127 0" result="hardAlpha"/>
<feOffset dy="3"/>
<feGaussianBlur stdDeviation="3"/>
<feColorMatrix type="matrix" values="0 0 0 0 0 0 0 0 0 0 0 0 0 0 0 0 0 0 0.161 0"/>
<feBlend mode="normal" in2="BackgroundImageFix" result="effect1_dropShadow_1270_31990"/>
<feBlend mode="normal" in="SourceGraphic" in2="effect1_dropShadow_1270_31990" result="shape"/>
</filter>
<filter id="filter2_d_1270_31990" x="0" y="98" width="157" height="47" filterUnits="userSpaceOnUse" color-interpolation-filters="sRGB">
<feFlood flood-opacity="0" result="BackgroundImageFix"/>
<feColorMatrix in="SourceAlpha" type="matrix" values="0 0 0 0 0 0 0 0 0 0 0 0 0 0 0 0 0 0 127 0" result="hardAlpha"/>
<feOffset dy="3"/>
<feGaussianBlur stdDeviation="3"/>
<feColorMatrix type="matrix" values="0 0 0 0 0 0 0 0 0 0 0 0 0 0 0 0 0 0 0.161 0"/>
<feBlend mode="normal" in2="BackgroundImageFix" result="effect1_dropShadow_1270_31990"/>
<feBlend mode="normal" in="SourceGraphic" in2="effect1_dropShadow_1270_31990" result="shape"/>
</filter>
</defs>
</svg>
