<svg width="16" height="16" viewBox="0 0 16 16" fill="none" xmlns="http://www.w3.org/2000/svg">
<path fill-rule="evenodd" clip-rule="evenodd" d="M15 14.2949L11.225 10.4999C13.0997 8.23798 12.8657 4.9021 10.6937 2.92394C8.52175 0.945788 5.17858 1.02382 3.10125 3.10116C1.02391 5.17849 0.94588 8.52165 2.92403 10.6936C4.90219 12.8656 8.23807 13.0996 10.5 11.2249L14.295 14.9999L15 14.2949ZM2.49999 6.9999C2.49999 4.51462 4.51471 2.4999 6.99999 2.4999C9.48527 2.4999 11.5 4.51462 11.5 6.9999C11.5 9.48518 9.48527 11.4999 6.99999 11.4999C4.51471 11.4999 2.49999 9.48518 2.49999 6.9999Z" fill="#1F2A37"/>
</svg>
