<svg width="36" height="36" viewBox="0 0 36 36" fill="none" xmlns="http://www.w3.org/2000/svg">
<path d="M23 21.9583C22.8667 21.9583 22.7417 21.9166 22.625 21.8333C22.35 21.6249 22.2917 21.2333 22.5 20.9583C23.8083 19.2166 23.8083 16.7833 22.5 15.0416C22.2917 14.7666 22.35 14.3749 22.625 14.1666C22.9 13.9583 23.2917 14.0166 23.5 14.2916C25.1333 16.4749 25.1333 19.5249 23.5 21.7083C23.375 21.8749 23.1917 21.9583 23 21.9583Z" fill="#8646F4"/>
<path d="M24.525 24.0417C24.3917 24.0417 24.2667 24 24.15 23.9167C23.875 23.7084 23.8167 23.3167 24.025 23.0417C26.25 20.075 26.25 15.925 24.025 12.9584C23.8167 12.6834 23.875 12.2917 24.15 12.0834C24.425 11.875 24.8167 11.9334 25.025 12.2084C27.5833 15.6167 27.5833 20.3834 25.025 23.7917C24.9083 23.9584 24.7167 24.0417 24.525 24.0417Z" fill="#8646F4"/>
<path d="M19.6833 11.1501C18.75 10.6334 17.5583 10.7667 16.3417 11.5251L13.9083 13.0501C13.7417 13.1501 13.55 13.2084 13.3583 13.2084H12.5833H12.1667C10.15 13.2084 9.04166 14.3167 9.04166 16.3334V19.6667C9.04166 21.6834 10.15 22.7917 12.1667 22.7917H12.5833H13.3583C13.55 22.7917 13.7417 22.8501 13.9083 22.9501L16.3417 24.4751C17.075 24.9334 17.7917 25.1584 18.4583 25.1584C18.8917 25.1584 19.3083 25.0584 19.6833 24.8501C20.6083 24.3334 21.125 23.2584 21.125 21.8251V14.1751C21.125 12.7417 20.6083 11.6667 19.6833 11.1501Z" fill="#8646F4"/>
<rect x="0.5" y="0.5" width="35" height="35" rx="17.5" stroke="#DFE4EA"/>
</svg>
