<svg width="36" height="24" viewBox="0 0 36 24" fill="none" xmlns="http://www.w3.org/2000/svg">
<path d="M31.4369 22.7348C30.0575 23.8008 28.2277 22.6562 27.7715 20.9737C28.3185 20.7632 28.7364 20.5526 29.0252 20.3421C29.3291 20.1491 29.5418 19.8772 29.6634 19.5263C29.8002 19.1754 29.8686 18.7018 29.8686 18.1053L29.823 15.8947C29.823 14.8772 30.0889 14.0263 30.6208 13.3421C31.1678 12.6579 32.0188 12.1491 33.1737 11.8158V12.2105C32.0188 11.8421 31.1678 11.3158 30.6208 10.6316C30.0889 9.94737 29.823 9.10526 29.823 8.10526L29.8686 5.89474C29.8686 5.33333 29.8078 4.89474 29.6862 4.57895C29.5646 4.24561 29.3519 3.98246 29.048 3.78947C28.744 3.59649 28.3185 3.39474 27.7715 3.18421L28.0542 2.08707C28.3538 0.924553 29.5541 0.159628 30.6208 0.710527C31.1982 1.00877 31.6693 1.36842 32.034 1.78947C32.4139 2.19298 32.695 2.68421 32.8774 3.26316C33.0749 3.84211 33.1737 4.5 33.1737 5.23684L33.1509 7.73684C33.1509 8.61404 33.3105 9.26316 33.6296 9.68421C33.9639 10.1053 34.4502 10.3246 35.0884 10.3421C35.592 10.3421 36.0002 10.7503 36.0002 11.2539V12.7005C36.0002 13.2293 35.5716 13.6579 35.0428 13.6579C34.4046 13.6754 33.9259 13.8947 33.6068 14.3158C33.3029 14.7193 33.1509 15.3684 33.1509 16.2632L33.1737 18.7632C33.1737 20.2018 32.8014 21.3333 32.0568 22.1579C31.8747 22.3638 31.6681 22.5561 31.4369 22.7348Z" fill="#7F56D9"/>
<path d="M4.56312 22.7348C5.94249 23.8008 7.77229 22.6562 8.22852 20.9737C7.68145 20.7632 7.26356 20.5526 6.97484 20.3421C6.67091 20.1491 6.45817 19.8772 6.3366 19.5263C6.19983 19.1754 6.13145 18.7018 6.13145 18.1053L6.17704 15.8947C6.17704 14.8772 5.91111 14.0263 5.37924 13.3421C4.83218 12.6579 3.9812 12.1491 2.82629 11.8158V12.2105C3.9812 11.8421 4.83218 11.3158 5.37924 10.6316C5.91111 9.94737 6.17704 9.10526 6.17704 8.10526L6.13145 5.89474C6.13145 5.33333 6.19223 4.89474 6.3138 4.57895C6.43537 4.24561 6.64812 3.98246 6.95204 3.78947C7.25596 3.59649 7.68145 3.39474 8.22852 3.18421L7.94577 2.08707C7.64619 0.924553 6.44587 0.159628 5.37924 0.710527C4.80179 1.00877 4.33071 1.36842 3.966 1.78947C3.5861 2.19298 3.30497 2.68421 3.12262 3.26316C2.92507 3.84211 2.82629 4.5 2.82629 5.23684L2.84909 7.73684C2.84909 8.61404 2.68953 9.26316 2.37041 9.68421C2.03609 10.1053 1.54982 10.3246 0.911578 10.3421C0.408022 10.3421 -0.000189781 10.7503 -0.000189781 11.2539V12.7005C-0.000189781 13.2293 0.428433 13.6579 0.957167 13.6579C1.5954 13.6754 2.07408 13.8947 2.3932 14.3158C2.69712 14.7193 2.84909 15.3684 2.84909 16.2632L2.82629 18.7632C2.82629 20.2018 3.1986 21.3333 3.94321 22.1579C4.12531 22.3638 4.33195 22.5561 4.56312 22.7348Z" fill="#7F56D9"/>
<rect x="10.2852" y="6" width="3.08571" height="12" rx="1.54286" fill="#1F2A37"/>
<rect x="22.6289" y="6" width="3.08571" height="12" rx="1.54286" fill="#1F2A37"/>
<rect x="16.457" y="1.2002" width="3.08571" height="21.6" rx="1.54286" fill="#1F2A37"/>
</svg>
