<svg width="16" height="16" viewBox="0 0 16 16" fill="none" xmlns="http://www.w3.org/2000/svg">
<path d="M7.99998 10.3334C9.47331 10.3334 10.6666 9.14004 10.6666 7.66671V4.00004C10.6666 2.52671 9.47331 1.33337 7.99998 1.33337C6.52665 1.33337 5.33331 2.52671 5.33331 4.00004V7.66671C5.33331 9.14004 6.52665 10.3334 7.99998 10.3334Z" stroke="#667085" stroke-linecap="round" stroke-linejoin="round"/>
<path d="M2.90002 6.43335V7.56668C2.90002 10.38 5.18669 12.6667 8.00002 12.6667C10.8134 12.6667 13.1 10.38 13.1 7.56668V6.43335" stroke="#667085" stroke-linecap="round" stroke-linejoin="round"/>
<path d="M7.0733 4.2867C7.6733 4.0667 8.32664 4.0667 8.92664 4.2867" stroke="#667085" stroke-linecap="round" stroke-linejoin="round"/>
<path d="M7.46667 5.7C7.82001 5.60667 8.18667 5.60667 8.54001 5.7" stroke="#667085" stroke-linecap="round" stroke-linejoin="round"/>
<path d="M8 12.6666V14.6666" stroke="#667085" stroke-linecap="round" stroke-linejoin="round"/>
</svg>
